<svg width="67" height="73" viewBox="0 0 67 73" fill="none" xmlns="http://www.w3.org/2000/svg">
<g opacity="0.4">
<path d="M-1.43929 24.4634C-0.792285 23.4717 0.257715 22.7035 1.71371 22.6355L1.40971 46.1376V46.1393C1.40971 46.352 1.47571 46.5805 1.59671 46.8228C2.16271 47.9551 3.51271 48.4859 5.54871 48.4859H6.61771H6.75871V48.3454V48.0697V47.9292H6.61771H5.56171L5.19472 47.8625L5.18871 47.8612L5.18172 47.8608C4.96272 47.8425 4.71972 47.6944 4.45572 47.3654C4.22672 47.0301 4.10371 46.5467 4.10371 45.8978V22.525V22.3867L3.96571 22.3844L1.85872 22.35L1.71771 22.3477V22.3518C-0.641288 22.3943 -2.38628 22.949 -3.48228 24.0453C-4.60228 25.1419 -5.14429 26.9698 -5.14429 29.4886V30.9683H-5.72729H-5.86829V31.1089V31.6659V31.8065H-5.72729H-5.14429V48.3454V48.4859H-5.00328H-2.59029H-2.45029V48.3454V31.8065H0.132706H0.272705V31.6659V31.1089V30.9683H0.132706H-2.45029V29.4886C-2.45029 27.128 -2.10529 25.4628 -1.43929 24.4646V24.4634ZM16.9177 39.9188C16.4477 39.8811 15.9317 39.8624 15.3697 39.8624C14.7447 39.8624 14.0627 39.8971 13.3247 39.9662C11.8377 40.0585 10.6077 40.2317 9.63672 40.4875C8.66772 40.7429 7.9437 41.084 7.4817 41.5212C7.0377 41.9418 6.75172 42.3429 6.64972 42.7246C6.55472 43.079 6.50671 43.4131 6.50671 43.7263C6.50671 44.0094 6.53071 44.2926 6.57771 44.5754C6.77671 45.9103 7.29871 46.9287 8.15471 47.611C9.00871 48.292 10.1787 48.624 11.6457 48.624C12.9067 48.624 14.0037 48.3642 14.9307 47.8387C15.7217 47.39 16.3837 46.7511 16.9177 45.9253V46.1393C16.9177 46.5688 17.2207 47.0405 17.7517 47.5489C18.3697 48.1886 19.4887 48.4859 21.0577 48.4859H22.1257H22.2667V48.3454V48.0697V47.9292H22.1257H21.0697L20.7037 47.8625L20.6967 47.8612L20.6897 47.8608C20.4707 47.8425 20.2287 47.6944 19.9637 47.3654C19.7347 47.0301 19.6117 46.5467 19.6117 45.8978V34.3494C19.6117 33.5722 19.2957 32.8392 18.6807 32.1529C18.2767 31.7006 17.6687 31.3711 16.8717 31.1542C16.0737 30.9372 15.0777 30.8304 13.8867 30.8304C11.7507 30.8304 9.65071 31.3065 7.58871 32.2567L7.44872 32.3209L7.52571 32.4542L7.6627 32.6955L7.73271 32.817L7.85471 32.7481C8.36671 32.4584 9.18071 32.1633 10.3037 31.8653L10.3047 31.8648C11.4467 31.5452 12.4327 31.3874 13.2667 31.3874C14.1057 31.3874 14.7747 31.5011 15.2787 31.7205L15.2837 31.7225C15.7997 31.9244 16.1377 32.1638 16.3227 32.43C16.5227 32.7192 16.6777 33.0185 16.7887 33.328L16.7907 33.3339L16.7927 33.3396C16.9247 33.624 16.9577 33.8429 16.9217 34.0069C16.8977 34.1016 16.8837 34.186 16.8837 34.2546C16.8837 34.289 16.8867 34.3279 16.9007 34.3651C16.9047 34.3771 16.9107 34.3896 16.9177 34.402V39.9188ZM9.26971 44.5416V44.5395C9.24671 44.313 9.23572 44.1112 9.23572 43.9331C9.23572 42.9464 9.49371 42.1911 9.99171 41.6495C10.2337 41.3863 10.6257 41.1548 11.1837 40.9633C11.7397 40.7724 12.4497 40.6246 13.3167 40.5219C13.9317 40.4536 14.5477 40.4194 15.1627 40.4194C15.7577 40.4194 16.3427 40.4391 16.9177 40.4787V44.5128C16.8517 45.238 16.3567 46.0208 15.3807 46.8599C14.4407 47.6665 13.3807 48.0672 12.1977 48.0672C11.3127 48.0672 10.6397 47.7757 10.1597 47.2035C9.67471 46.6259 9.37171 45.7452 9.26971 44.5416ZM25.1977 22.4905V22.35H25.0567H22.6437H22.5037V22.4905V48.3454V48.4859H22.6437H25.0567H25.1977V48.3454V40.0901L25.9737 39.1986L32.2487 48.4246L32.2907 48.4859H32.3657H34.7787H35.0437L34.8947 48.2666L27.5447 37.4633L33.0917 31.2021L33.2987 30.9683H32.9857H32.6417H32.5787L32.5357 31.0156L25.1977 39.2879V22.4905ZM48.3007 47.1181L48.2467 46.9938L48.1207 47.0422C46.3467 47.7244 44.3187 48.0672 42.0347 48.0672C40.4487 48.0672 39.1687 47.4225 38.1827 46.1238C37.2217 44.8268 36.7287 42.7727 36.7287 39.934C36.7287 39.3171 36.7587 38.7205 36.8177 38.1442H48.9987H49.1387V38.0035V38.0029V38.0022V38.0015V38.0009V38.0002V37.9995V37.9988V37.9982V37.9975V37.9968V37.9961V37.9954V37.9948V37.9941V37.9934V37.9928V37.9921V37.9914V37.9907V37.9901V37.9894V37.9887V37.9881V37.9874V37.9867V37.986V37.9853V37.9847V37.984V37.9833V37.9827V37.982V37.9813V37.9806V37.98V37.9793V37.9786V37.978V37.9773V37.9766V37.9759V37.9753V37.9746V37.9739V37.9733V37.9726V37.9719V37.9712V37.9705V37.9699V37.9692V37.9685V37.9679V37.9672V37.9665V37.9658V37.9652V37.9645V37.9638V37.9631V37.9625V37.9618V37.9611V37.9605V37.9598V37.9591V37.9584V37.9577V37.9571V37.9564V37.9557V37.9551V37.9544V37.9537V37.953V37.9524V37.9517V37.951V37.9504V37.9497V37.949V37.9483V37.9476V37.947V37.9463V37.9456V37.945V37.9443V37.9436V37.9429V37.9423V37.9416V37.9409V37.9403V37.9396V37.9389V37.9382V37.9376V37.9369V37.9362V37.9356V37.9348V37.9342V37.9335V37.9328V37.9322V37.9315V37.9308V37.9301V37.9295V37.9288V37.9281V37.9275V37.9268V37.9261V37.9254V37.9248V37.9241V37.9234V37.9228V37.9221V37.9214V37.9207V37.92V37.9194V37.9187V37.918V37.9174V37.9167V37.916V37.9153V37.9147V37.914V37.9133V37.9127V37.9119V37.9113V37.9106V37.9099V37.9093V37.9086V37.9079V37.9072V37.9066V37.9059V37.9052V37.9046V37.9039V37.9032V37.9025V37.9019V37.9012V37.9005V37.8999V37.8992V37.8985V37.8978V37.8971V37.8965V37.8958V37.8951V37.8945V37.8938V37.8931V37.8924V37.8918V37.8911V37.8904V37.8898V37.8891V37.8884V37.8877V37.8871V37.8864V37.8857V37.885V37.8844V37.8837V37.883V37.8823V37.8817V37.881V37.8803V37.8797V37.879V37.8783V37.8776V37.877V37.8763V37.8756V37.875V37.8742V37.8736V37.8729V37.8722V37.8716V37.8709V37.8702V37.8695V37.8689V37.8682V37.8675V37.8669V37.8662V37.8655V37.8648V37.8642V37.8635V37.8628V37.8622V37.8615V37.8608V37.8601V37.8594V37.8588V37.8581V37.8574V37.8568V37.8561V37.8554V37.8547V37.8541V37.8534V37.8527V37.8521V37.8514V37.8507V37.85V37.8494V37.8487V37.848V37.8473V37.8466V37.846V37.8453V37.8446V37.844V37.8433V37.8426V37.8419V37.8413V37.8406V37.8399V37.8393V37.8386V37.8379V37.8372V37.8365V37.8359V37.8352V37.8345V37.8339V37.8332V37.8325V37.8318V37.8312V37.8305V37.8298V37.8292V37.8285V37.8278V37.8271V37.8265V37.8258V37.8251V37.8245V37.8238V37.8231V37.8224V37.8217V37.8211V37.8204V37.8197V37.819V37.8184V37.8177V37.817V37.8164V37.8157V37.815V37.8143V37.8137V37.813V37.8123V37.8117V37.811V37.8103V37.8096V37.8089V37.8083V37.8076V37.8069V37.8063V37.8056V37.8049V37.8042V37.8036V37.8029V37.8022V37.8016V37.8009V37.8002V37.7995V37.7988V37.7982V37.7975V37.7968V37.7962V37.7955V37.7948V37.7941V37.7935V37.7928V37.7921V37.7915V37.7908V37.7901V37.7894V37.7888V37.7881V37.7874V37.7868V37.786V37.7854V37.7847V37.784V37.7834V37.7827V37.782V37.7813V37.7807V37.78V37.7793V37.7787V37.778V37.7773V37.7766V37.776V37.7753V37.7746V37.7739V37.7733V37.7726V37.7719V37.7712V37.7706V37.7699V37.7692V37.7686V37.7679V37.7672V37.7665V37.7659V37.7652V37.7645V37.7639V37.7632V37.7625V37.7618V37.7611V37.7605V37.7598V37.7591V37.7584V37.7578V37.7571V37.7564V37.7558V37.7551V37.7544V37.7537V37.7531V37.7524V37.7517V37.7511V37.7504V37.7497V37.749V37.7483V37.7477V37.747V37.7463V37.7457V37.745V37.7443V37.7436V37.743V37.7423V37.7416V37.741V37.7403V37.7396V37.7389V37.7383V37.7376V37.7369V37.7362V37.7356V37.7349V37.7342V37.7335V37.7329V37.7322V37.7315V37.7308V37.7302V37.7295V37.7288V37.7282V37.7275V37.7268V37.7262V37.7254V37.7248V37.7241V37.7234V37.7228V37.7221V37.7214V37.7207V37.7201V37.7194V37.7187V37.7181V37.7174V37.7167V37.716V37.7154V37.7147V37.714V37.7134V37.7127V37.712V37.7113V37.7106V37.71V37.7093V37.7086V37.708V37.7073V37.7066V37.7059V37.7053V37.7046V37.7039V37.7033V37.7026V37.7019V37.7012V37.7006V37.6999V37.6992V37.6985V37.6978V37.6972V37.6965V37.6958V37.6952V37.6945V37.6938V37.6931V37.6925V37.6918V37.6911V37.6905V37.6898V37.6891V37.6884V37.6877V37.6871V37.6864V37.6857V37.6851V37.6844V37.6837V37.683V37.6824V37.6817V37.681V37.6804V37.6797V37.679V37.6783V37.6777V37.677V37.6763V37.6757V37.6749V37.6743V37.6736V37.6729V37.6723V37.6716V37.6709V37.6702V37.6696V37.6689V37.6682V37.6676V37.6669V37.6662V37.6655V37.6649V37.6642V37.6635V37.6629V37.6622V37.6615V37.6608V37.6601V37.6595V37.6588C49.1387 35.4245 48.4867 33.7145 47.1607 32.5544C45.8447 31.4035 44.2257 30.8304 42.3107 30.8304C39.9307 30.8304 37.9627 31.6369 36.4177 33.2524C34.8687 34.8717 34.1027 37.1401 34.1027 40.0375C34.1027 42.9318 34.8327 45.1017 36.3187 46.5167C37.7967 47.9246 39.7067 48.624 42.0347 48.624C44.3707 48.624 46.4677 48.2657 48.3257 47.5459L48.4607 47.4934L48.4037 47.3595L48.3007 47.1181ZM45.2677 32.9192C46.0497 33.9186 46.4717 35.4666 46.5117 37.5872H36.8877C37.1727 35.6602 37.8007 34.1563 38.7617 33.0639C39.7737 31.939 40.9097 31.3874 42.1727 31.3874C43.4377 31.3874 44.4667 31.8951 45.2677 32.9192Z" fill="#050038" stroke="#050038" stroke-width="0.281209"/>
<path d="M52.1797 22.1287V23.0394H51.1447V25.8102H50.1617V23.0394H49.1257V22.1287H52.1797Z" fill="#050038"/>
<path d="M56.2148 22.0735V25.8268H55.2318V24.0054L54.5118 24.8609H54.2178L53.4978 24.0054V25.8268H52.5148V22.0735H52.8618L54.3648 23.6742L55.8678 22.0735H56.2148Z" fill="#050038"/>
</g>
</svg>
