<svg width="201" height="73" viewBox="0 0 201 73" fill="none" xmlns="http://www.w3.org/2000/svg">
<g opacity="0.4">
<path d="M87.5424 27.6821V50.8274H81.9044V41.2989H73.1341V50.8274H67.4961V27.6821H73.1341V36.749H81.9044V27.6821H87.5424Z" fill="#050038"/>
<path d="M93.1296 30.5175C92.1404 30.5175 91.3272 30.2318 90.69 29.6603C90.0744 29.0668 89.7666 28.3414 89.7666 27.4842C89.7666 26.605 90.0744 25.8797 90.69 25.3081C91.3272 24.7147 92.1404 24.418 93.1296 24.418C94.0968 24.418 94.8883 24.7147 95.5034 25.3081C96.1411 25.8797 96.4597 26.605 96.4597 27.4842C96.4597 28.3414 96.1411 29.0668 95.5034 29.6603C94.8883 30.2318 94.0968 30.5175 93.1296 30.5175ZM95.9322 32.4298V50.8273H90.2942V32.4298H95.9322Z" fill="#050038"/>
<path d="M108.952 46.0468V50.8273H106.084C104.04 50.8273 102.446 50.3327 101.303 49.3439C100.16 48.3326 99.5887 46.6953 99.5887 44.4312V37.1117H97.3466V32.4298H99.5887V27.9458H105.227V32.4298H108.919V37.1117H105.227V44.4971C105.227 45.0468 105.359 45.4421 105.622 45.684C105.886 45.9259 106.326 46.0468 106.941 46.0468H108.952Z" fill="#050038"/>
<path d="M128.117 41.332C128.117 41.8595 128.084 42.4092 128.018 42.9805H115.259C115.347 44.1236 115.709 45.0027 116.347 45.6183C117.006 46.2117 117.808 46.5087 118.753 46.5087C120.16 46.5087 121.138 45.9148 121.688 44.7279H127.688C127.381 45.9369 126.82 47.025 126.007 47.9921C125.216 48.9592 124.216 49.7178 123.007 50.267C121.798 50.8167 120.446 51.0915 118.951 51.0915C117.149 51.0915 115.544 50.7066 114.138 49.9376C112.731 49.1681 111.632 48.0692 110.84 46.6405C110.049 45.2117 109.654 43.541 109.654 41.6289C109.654 39.7163 110.038 38.046 110.808 36.6173C111.599 35.1885 112.698 34.0895 114.105 33.3202C115.511 32.5509 117.127 32.1663 118.951 32.1663C120.732 32.1663 122.314 32.5399 123.699 33.2873C125.084 34.0346 126.161 35.1006 126.93 36.4854C127.721 37.8702 128.117 39.4857 128.117 41.332ZM122.347 39.8485C122.347 38.8813 122.018 38.1119 121.358 37.5404C120.699 36.969 119.874 36.6832 118.886 36.6832C117.94 36.6832 117.138 36.958 116.478 37.5075C115.841 38.057 115.445 38.8373 115.292 39.8485H122.347Z" fill="#050038"/>
<path d="M128.652 41.6289C128.652 39.7163 129.036 38.046 129.806 36.6173C130.597 35.1885 131.685 34.0895 133.07 33.3202C134.476 32.5509 136.081 32.1663 137.883 32.1663C140.191 32.1663 142.114 32.7707 143.653 33.9796C145.214 35.1885 146.236 36.892 146.719 39.0901H140.719C140.213 37.6833 139.235 36.9799 137.784 36.9799C136.751 36.9799 135.927 37.3866 135.312 38.1999C134.696 38.9912 134.388 40.1342 134.388 41.6289C134.388 43.1236 134.696 44.2775 135.312 45.0907C135.927 45.8819 136.751 46.2776 137.784 46.2776C139.235 46.2776 140.213 45.5745 140.719 44.1674H146.719C146.236 46.3218 145.214 48.0142 143.653 49.2449C142.092 50.476 140.169 51.0915 137.883 51.0915C136.081 51.0915 134.476 50.7066 133.07 49.9376C131.685 49.1681 130.597 48.0692 129.806 46.6405C129.036 45.2117 128.652 43.541 128.652 41.6289Z" fill="#050038"/>
<path d="M159.725 32.2321C161.835 32.2321 163.528 32.9354 164.803 34.3421C166.077 35.7269 166.715 37.6392 166.715 40.079V50.8274H161.11V40.8372C161.11 39.6065 160.791 38.6503 160.154 37.9689C159.516 37.2875 158.659 36.9469 157.582 36.9469C156.505 36.9469 155.648 37.2875 155.01 37.9689C154.373 38.6503 154.054 39.6065 154.054 40.8372V50.8274H148.416V26.4292H154.054V34.9027C154.626 34.0894 155.406 33.441 156.395 32.9574C157.384 32.4738 158.494 32.2321 159.725 32.2321Z" fill="#050038"/>
<path d="M38.3038 38.7292V18.7156H44.9764V29.0035C46.141 28.554 47.4066 28.3075 48.7297 28.3075C54.4878 28.3075 59.1556 32.9754 59.1556 38.7335V50.8275H52.4831V38.7335C52.4831 36.6606 50.8026 34.9801 48.7297 34.9801C46.6577 34.9801 44.9778 36.6591 44.9764 38.7307C44.9764 38.7316 44.9764 38.7326 44.9764 38.7335V50.8275H38.3038V38.7335C38.3038 38.7321 38.3038 38.7306 38.3038 38.7292Z" fill="#050038"/>
<path d="M52.4825 25.3882V18.7156H59.1549V25.3882H52.4825Z" fill="#050038"/>
</g>
</svg>
