<svg width="41" height="41" viewBox="0 0 41 41" fill="none" xmlns="http://www.w3.org/2000/svg">
<g clip-path="url(#clip0_2316_175)">
<path d="M20.0174 40.2031C31.0631 40.2031 40.0174 31.2488 40.0174 20.2031C40.0174 9.15743 31.0631 0.203125 20.0174 0.203125C8.9717 0.203125 0.017395 9.15743 0.017395 20.2031C0.017395 31.2488 8.9717 40.2031 20.0174 40.2031Z" fill="#00F59B"/>
<path fill-rule="evenodd" clip-rule="evenodd" d="M27.6759 14.4505C28.0916 14.8142 28.1337 15.446 27.77 15.8616L19.02 25.8616C18.6577 26.2757 18.0288 26.3193 17.6129 25.9591L12.3629 21.4137C11.9453 21.0522 11.8999 20.4206 12.2614 20.0031C12.6229 19.5856 13.2544 19.5401 13.672 19.9016L18.1699 23.796L26.2648 14.5446C26.6285 14.129 27.2603 14.0869 27.6759 14.4505Z" fill="#FFFAFF"/>
</g>
<defs>
<clipPath id="clip0_2316_175">
<rect width="40" height="40" fill="white" transform="translate(0.017395 0.203125)"/>
</clipPath>
</defs>
</svg>
