<svg width="57" height="57" viewBox="0 0 57 57" fill="none" xmlns="http://www.w3.org/2000/svg">
<g clip-path="url(#clip0_2316_279)">
<path d="M39.8563 0.546875H17.4562C8.17787 0.546875 0.65625 8.06849 0.65625 17.3469V39.7469C0.65625 49.0253 8.17787 56.5469 17.4562 56.5469H39.8563C49.1346 56.5469 56.6562 49.0253 56.6562 39.7469V17.3469C56.6562 8.06849 49.1346 0.546875 39.8563 0.546875Z" fill="#9D0AFF"/>
<path fill-rule="evenodd" clip-rule="evenodd" d="M24.3614 19.6875C23.4444 20.7329 22.9266 22.2486 22.9266 24.0514V26.3432C22.9266 27.481 22.4146 28.4263 21.8717 29.1465C21.3752 29.8053 20.757 30.3966 20.2715 30.8611C20.2307 30.9001 20.1909 30.9382 20.1521 30.9754C19.6979 31.4111 19.4007 32.0027 19.4007 32.6898C19.4007 33.3842 19.9212 33.8358 20.4291 33.8358H36.8834C37.3913 33.8358 37.9118 33.3842 37.9118 32.6898C37.9118 32.0027 37.6146 31.4111 37.1604 30.9754C37.1216 30.9382 37.0818 30.9001 37.041 30.8611C36.5555 30.3966 35.9373 29.8053 35.4408 29.1465C34.8979 28.4263 34.3859 27.481 34.3859 26.3432V24.0514C34.3859 22.2486 33.8681 20.733 32.9511 19.6875C32.056 18.6671 30.6727 17.9691 28.6563 17.9691C26.6398 17.9691 25.2565 18.6671 24.3614 19.6875ZM22.3733 17.9437C23.8289 16.2844 25.9715 15.3247 28.6563 15.3247C31.341 15.3247 33.4836 16.2844 34.9392 17.9437C36.3728 19.5782 37.0303 21.7646 37.0303 24.0514V26.3432C37.0303 26.6658 37.1752 27.054 37.5526 27.5549C37.9145 28.035 38.3842 28.4854 38.9031 28.9827C38.9324 29.0107 38.9617 29.0388 38.9911 29.0671C39.8952 29.9345 40.5563 31.1909 40.5563 32.6898C40.5563 34.7217 38.9719 36.4802 36.8834 36.4802H20.4291C18.3406 36.4802 16.7563 34.7217 16.7563 32.6898C16.7563 31.1909 17.4173 29.9345 18.3214 29.0671C18.3509 29.0388 18.3802 29.0107 18.4093 28.9827C18.9283 28.4854 19.3981 28.035 19.7599 27.5549C20.1373 27.054 20.2822 26.6658 20.2822 26.3432V24.0514C20.2822 21.7646 20.9397 19.5782 22.3733 17.9437Z" fill="#FFFAFF"/>
<path fill-rule="evenodd" clip-rule="evenodd" d="M25.2755 38.0264C25.882 37.6198 26.7033 37.7817 27.1101 38.3882C27.2415 38.5841 27.4456 38.769 27.7201 38.9057C27.995 39.0426 28.3185 39.1199 28.6563 39.1199C28.9943 39.1199 29.3178 39.0426 29.5927 38.9057C29.8672 38.769 30.0713 38.5841 30.2027 38.3882C30.6094 37.7817 31.4308 37.6198 32.0372 38.0264C32.6437 38.4332 32.8057 39.2545 32.399 39.8611C31.9929 40.4665 31.4256 40.947 30.7719 41.2726C30.1185 41.5982 29.3897 41.7643 28.6563 41.7643C27.9231 41.7643 27.1943 41.5982 26.5408 41.2726C25.8871 40.947 25.3199 40.4665 24.9138 39.8611C24.5071 39.2545 24.669 38.4332 25.2755 38.0264Z" fill="#FFFAFF"/>
</g>
<defs>
<clipPath id="clip0_2316_279">
<rect width="56" height="56" fill="white" transform="translate(0.65625 0.546875)"/>
</clipPath>
</defs>
</svg>
