<svg width="56" height="57" viewBox="0 0 56 57" fill="none" xmlns="http://www.w3.org/2000/svg">
<g clip-path="url(#clip0_2316_248)">
<path d="M39.2 0.546875H16.8C7.52162 0.546875 0 8.06849 0 17.3469V39.7469C0 49.0253 7.52162 56.5469 16.8 56.5469H39.2C48.4784 56.5469 56 49.0253 56 39.7469V17.3469C56 8.06849 48.4784 0.546875 39.2 0.546875Z" fill="#9D0AFF"/>
<path fill-rule="evenodd" clip-rule="evenodd" d="M14.7781 23.2582C14.7781 20.3372 17.1461 17.9694 20.0671 17.9694H35.9337C38.8547 17.9694 41.2226 20.3372 41.2226 23.2582V33.836C41.2226 36.757 38.8547 39.1249 35.9337 39.1249H20.0671C17.1461 39.1249 14.7781 36.757 14.7781 33.836V23.2582ZM20.0671 20.6138C18.6066 20.6138 17.4226 21.7977 17.4226 23.2582V33.836C17.4226 35.2965 18.6066 36.4804 20.0671 36.4804H35.9337C37.3942 36.4804 38.5781 35.2965 38.5781 33.836V23.2582C38.5781 21.7977 37.3942 20.6138 35.9337 20.6138H20.0671Z" fill="#FFFAFF"/>
<path fill-rule="evenodd" clip-rule="evenodd" d="M39.9 27.2246H16.1V24.5802H39.9V27.2246Z" fill="#FFFAFF"/>
<path fill-rule="evenodd" clip-rule="evenodd" d="M29.3219 32.5134C29.3219 31.7832 29.9138 31.1912 30.6441 31.1912H34.6107C35.341 31.1912 35.933 31.7832 35.933 32.5134C35.933 33.2437 35.341 33.8357 34.6107 33.8357H30.6441C29.9138 33.8357 29.3219 33.2437 29.3219 32.5134Z" fill="#FFFAFF"/>
</g>
<defs>
<clipPath id="clip0_2316_248">
<rect width="56" height="56" fill="white" transform="translate(0 0.546875)"/>
</clipPath>
</defs>
</svg>
