<svg width="56" height="57" viewBox="0 0 56 57" fill="none" xmlns="http://www.w3.org/2000/svg">
<g clip-path="url(#clip0_2316_502)">
<path d="M40.88 0.578125H15.12C6.76946 0.578125 0 7.34758 0 15.6981V41.4581C0 49.8087 6.76946 56.5781 15.12 56.5781H40.88C49.2305 56.5781 56 49.8087 56 41.4581V15.6981C56 7.34758 49.2305 0.578125 40.88 0.578125Z" fill="#9D0AFF"/>
<path fill-rule="evenodd" clip-rule="evenodd" d="M27.5334 17.2227C21.5197 17.2227 16.6445 22.0979 16.6445 28.1117C16.6445 30.4148 17.358 32.5473 18.5761 34.3052C18.9792 34.8869 19.0765 35.6636 18.7571 36.3507L17.5256 39.0005H27.5334C33.5472 39.0005 38.4223 34.1254 38.4223 28.1117C38.4223 22.0979 33.5472 17.2227 27.5334 17.2227ZM13.9223 28.1117C13.9223 20.5944 20.0162 14.5005 27.5334 14.5005C35.0506 14.5005 41.1445 20.5944 41.1445 28.1117C41.1445 35.6288 35.0506 41.7227 27.5334 41.7227H16.4562C14.9123 41.7227 13.9357 40.0804 14.6492 38.7305L16.1297 35.5451C14.7338 33.4075 13.9223 30.8525 13.9223 28.1117Z" fill="#FFFAFF"/>
<path fill-rule="evenodd" clip-rule="evenodd" d="M22.0889 30.8337C22.0889 30.082 22.6984 29.4727 23.4501 29.4727H31.6168C32.3685 29.4727 32.9778 30.082 32.9778 30.8337C32.9778 31.5854 32.3685 32.1948 31.6168 32.1948H23.4501C22.6984 32.1948 22.0889 31.5854 22.0889 30.8337Z" fill="#FFFAFF"/>
<path fill-rule="evenodd" clip-rule="evenodd" d="M22.0889 25.3894C22.0889 24.6377 22.6984 24.0283 23.4501 24.0283H26.1723C26.9241 24.0283 27.5334 24.6377 27.5334 25.3894C27.5334 26.1411 26.9241 26.7506 26.1723 26.7506H23.4501C22.6984 26.7506 22.0889 26.1411 22.0889 25.3894Z" fill="#FFFAFF"/>
</g>
<defs>
<clipPath id="clip0_2316_502">
<rect width="56" height="56" fill="white" transform="translate(0 0.578125)"/>
</clipPath>
</defs>
</svg>
