<svg width="56" height="57" viewBox="0 0 56 57" fill="none" xmlns="http://www.w3.org/2000/svg">
<g clip-path="url(#clip0_2316_512)">
<path d="M40.88 0.078125H15.12C6.76946 0.078125 0 6.84758 0 15.1981V40.9581C0 49.3087 6.76946 56.0781 15.12 56.0781H40.88C49.2305 56.0781 56 49.3087 56 40.9581V15.1981C56 6.84758 49.2305 0.078125 40.88 0.078125Z" fill="#9D0AFF"/>
<path fill-rule="evenodd" clip-rule="evenodd" d="M37.4779 15.8229C39.6341 15.2069 41.6275 17.2003 41.0115 19.3565L35.5676 38.4104C34.6601 41.5864 30.4176 42.183 28.6695 39.3804L24.8619 33.2761C24.5324 32.7479 24.0865 32.3021 23.5584 31.9726L17.4541 28.165C14.6515 26.4168 15.2481 22.1744 18.4241 21.2669L37.4779 15.8229ZM38.2974 18.4371C38.2835 18.4332 38.2624 18.4299 38.2257 18.4405L19.172 23.8844C18.2645 24.1436 18.0941 25.3558 18.8948 25.8552L24.9991 29.6629C25.8794 30.2119 26.6225 30.9551 27.1716 31.8354L30.9792 37.9397C31.4786 38.7404 32.6908 38.57 32.95 37.6625L38.394 18.6087C38.4044 18.5721 38.4013 18.551 38.3973 18.5371C38.3923 18.5189 38.3804 18.4962 38.3594 18.4751C38.3383 18.454 38.3156 18.4421 38.2974 18.4371Z" fill="#FFFAFF"/>
<path fill-rule="evenodd" clip-rule="evenodd" d="M31.7812 25.0534C32.3127 25.585 32.3127 26.4468 31.7812 26.9783L26.9689 31.7906C26.4374 32.3221 25.5756 32.3221 25.044 31.7906C24.5125 31.2591 24.5125 30.3972 25.044 29.8657L29.8563 25.0534C30.3878 24.5219 31.2497 24.5219 31.7812 25.0534Z" fill="#FFFAFF"/>
</g>
<defs>
<clipPath id="clip0_2316_512">
<rect width="56" height="56" fill="white" transform="translate(0 0.078125)"/>
</clipPath>
</defs>
</svg>
