<svg width="41" height="41" viewBox="0 0 41 41" fill="none" xmlns="http://www.w3.org/2000/svg">
<g clip-path="url(#clip0_2316_135)">
<path d="M20.4044 40.2031C31.4501 40.2031 40.4044 31.2488 40.4044 20.2031C40.4044 9.15743 31.4501 0.203125 20.4044 0.203125C9.35872 0.203125 0.404419 9.15743 0.404419 20.2031C0.404419 31.2488 9.35872 40.2031 20.4044 40.2031Z" fill="#9D0AFF"/>
<path fill-rule="evenodd" clip-rule="evenodd" d="M28.0629 14.4505C28.4786 14.8142 28.5207 15.446 28.157 15.8616L19.407 25.8616C19.0447 26.2757 18.4158 26.3193 17.9999 25.9591L12.7499 21.4137C12.3323 21.0522 12.2869 20.4206 12.6484 20.0031C13.0099 19.5856 13.6414 19.5401 14.059 19.9016L18.5569 23.796L26.6518 14.5446C27.0155 14.129 27.6473 14.0869 28.0629 14.4505Z" fill="#FFFAFF"/>
</g>
<defs>
<clipPath id="clip0_2316_135">
<rect width="40" height="40" fill="white" transform="translate(0.404419 0.203125)"/>
</clipPath>
</defs>
</svg>
