<svg width="25" height="25" viewBox="0 0 25 25" fill="none" xmlns="http://www.w3.org/2000/svg">
<g clip-path="url(#clip0_2316_431)">
<path d="M10.8704 1.95706C11.379 0.926423 12.8486 0.926423 13.3573 1.95706L15.8665 7.04126C16.0685 7.45053 16.4589 7.7342 16.9106 7.79983L22.5213 8.61512C23.6587 8.78039 24.1129 10.1781 23.2898 10.9803L19.2298 14.9379C18.903 15.2564 18.7539 15.7154 18.8311 16.1652L19.7895 21.7533C19.9838 22.8861 18.7948 23.7499 17.7775 23.2151L12.7591 20.5768C12.3551 20.3644 11.8725 20.3644 11.4685 20.5768L6.45013 23.2151C5.43283 23.7499 4.24385 22.8861 4.43814 21.7533L5.39657 16.1652C5.47372 15.7154 5.32459 15.2564 4.99777 14.9379L0.93779 10.9803C0.114779 10.1781 0.568927 8.78039 1.7063 8.61512L7.31705 7.79983C7.76871 7.7342 8.15914 7.45053 8.36113 7.04126L10.8704 1.95706Z" fill="#00F59B"/>
</g>
<defs>
<clipPath id="clip0_2316_431">
<rect width="24" height="23.1111" fill="white" transform="translate(0.263184 0.850586)"/>
</clipPath>
</defs>
</svg>
