<svg width="201" height="73" viewBox="0 0 201 73" fill="none" xmlns="http://www.w3.org/2000/svg">
<g opacity="0.4">
<path d="M82.5317 25.8994H86.8435V49.1164H82.5317V25.8994Z" fill="#050038"/>
<path d="M101.117 31.2063C103.35 31.2063 105.141 31.8586 106.49 33.1632C107.839 34.4678 108.513 36.4025 108.513 38.9674V49.1165H104.367V39.4983C104.367 37.9503 104.002 36.7895 103.273 36.0156C102.543 35.2196 101.504 34.8215 100.155 34.8215C98.629 34.8215 97.4238 35.2859 96.5396 36.2146C95.6551 37.1212 95.2126 38.437 95.2126 40.1614V49.1165H91.0668V31.4053H95.0137V33.6939C95.6993 32.8757 96.5617 32.2566 97.601 31.8365C98.6403 31.4164 99.8122 31.2063 101.117 31.2063Z" fill="#050038"/>
<path d="M128.374 31.4053L120.778 49.1165H116.5L108.905 31.4053H113.216L118.722 44.5395L124.394 31.4053H128.374Z" fill="#050038"/>
<path d="M145.471 40.3604C145.471 40.6481 145.449 41.0568 145.405 41.5877H131.507C131.751 42.8922 132.381 43.9315 133.398 44.7055C134.437 45.4574 135.72 45.8332 137.245 45.8332C139.191 45.8332 140.794 45.1918 142.055 43.9094L144.277 46.4633C143.481 47.4142 142.475 48.1327 141.259 48.619C140.042 49.1057 138.672 49.3488 137.146 49.3488C135.2 49.3488 133.487 48.9618 132.005 48.1882C130.524 47.4142 129.374 46.3415 128.556 44.9707C127.759 43.5778 127.362 42.0077 127.362 40.2611C127.362 38.5362 127.749 36.9885 128.523 35.6176C129.318 34.2245 130.413 33.1411 131.806 32.3672C133.199 31.5933 134.769 31.2063 136.516 31.2063C138.24 31.2063 139.777 31.5933 141.126 32.3672C142.497 33.119 143.558 34.1914 144.31 35.5844C145.084 36.9553 145.471 38.5475 145.471 40.3604ZM136.516 34.5231C135.189 34.5231 134.061 34.921 133.133 35.7171C132.226 36.491 131.673 37.5303 131.474 38.8348H141.524C141.347 37.5524 140.805 36.5131 139.899 35.7171C138.992 34.921 137.865 34.5231 136.516 34.5231Z" fill="#050038"/>
<path d="M151.742 33.9923C152.936 32.135 155.037 31.5379 158.044 31.5379V34.8547C157.69 34.7883 157.37 34.7552 157.082 34.7552C155.468 34.7552 154.208 35.5291 153.301 36.4799C152.395 37.4085 151.941 38.7572 151.941 40.5263V49.1165H147.795V31.4053H151.742V33.9923Z" fill="#050038"/>
<path d="M172.031 48.1547C171.544 48.5526 170.948 48.8512 170.24 49.0501C169.555 49.2495 168.825 49.3487 168.051 49.3487C166.105 49.3487 164.602 48.8403 163.54 47.8232C162.479 46.806 161.948 45.3243 161.948 43.3788V34.8546H159.03V31.5379H161.948V27.4915H166.094V31.5379H170.837V34.8546H166.094V43.2791C166.094 44.1416 166.304 44.8046 166.724 45.2692C167.144 45.7113 167.752 45.9327 168.548 45.9327C169.477 45.9327 170.251 45.6892 170.87 45.2029L172.031 48.1547Z" fill="#050038"/>
<path fill-rule="evenodd" clip-rule="evenodd" d="M71.6889 37.5766C71.6889 49.3234 62.1666 58.8457 50.4198 58.8457C38.6733 58.8457 29.1508 49.3234 29.1508 37.5766C29.1508 25.8301 38.6733 16.3076 50.4198 16.3076C62.1666 16.3076 71.6889 25.8301 71.6889 37.5766ZM65.0045 37.5766C65.0045 45.6313 58.475 52.1609 50.4203 52.1609C49.8618 52.1609 49.3106 52.1297 48.7684 52.0688C56.0984 51.2985 61.811 45.0988 61.811 37.5645C61.811 30.0684 56.1551 23.893 48.878 23.0728C49.3848 23.0195 49.8994 22.9922 50.4203 22.9922C58.475 22.9922 65.0045 29.5219 65.0045 37.5766ZM45.7102 47.8496C50.517 47.0005 54.1732 42.7242 54.1732 37.5766C54.1732 32.4289 50.517 28.1526 45.7102 27.3038C46.2919 27.2031 46.8901 27.1506 47.5005 27.1506C53.2586 27.1506 57.9266 31.8185 57.9266 37.5766C57.9266 43.3347 53.2586 48.0026 47.5005 48.0026C46.8901 48.0026 46.2919 47.9501 45.7102 47.8496Z" fill="#050038"/>
</g>
</svg>
