<svg width="201" height="73" viewBox="0 0 201 73" fill="none" xmlns="http://www.w3.org/2000/svg">
<g opacity="0.4">
<path d="M41.5959 19.9167L23.1036 42.1077H39.7466L37.8974 56.9013L56.3897 34.7106H39.7466L41.5959 19.9167Z" fill="#050038"/>
<path d="M82.5705 35.3849V42.2303H72.6967V51.6061H64.9386V23.8101H84.6448V30.6554H72.6967V35.3849H82.5705Z" fill="#050038"/>
<path d="M95.4641 23.8101V51.6061H88.3282V23.8101H95.4641Z" fill="#050038"/>
<path d="M107.239 29.8257C108.345 29.8257 109.423 30.0746 110.474 30.5724C111.553 31.0426 112.438 31.6511 113.13 32.3979V30.448H120.266V51.6062H113.13V48.08C112.604 49.2416 111.802 50.2234 110.724 51.0256C109.645 51.8277 108.345 52.2286 106.824 52.2286C105.247 52.2286 103.767 51.8277 102.385 51.0256C101.002 50.2234 99.8674 48.9927 98.9827 47.3332C98.1252 45.6459 97.6963 43.5302 97.6963 40.9856C97.6963 38.607 98.1252 36.588 98.9827 34.9285C99.8674 33.2691 101.03 32.0106 102.468 31.1532C103.934 30.2682 105.524 29.8257 107.239 29.8257ZM108.732 36.7955C107.709 36.7955 106.851 37.2103 106.16 38.0401C105.496 38.8698 105.164 39.8517 105.164 40.9856C105.164 42.1198 105.51 43.074 106.201 43.8481C106.893 44.6226 107.806 45.01 108.94 45.01C109.548 45.01 110.17 44.8576 110.807 44.5535C111.442 44.2217 111.982 43.7375 112.424 43.1016C112.895 42.4377 113.13 41.5941 113.13 40.5708V38.5379C112.521 38.0401 111.83 37.6252 111.055 37.2933C110.309 36.9614 109.534 36.7955 108.732 36.7955Z" fill="#050038"/>
<path d="M131.334 29.8257C132.717 29.8257 133.989 30.0331 135.151 30.448C136.34 30.8352 137.294 31.3745 138.013 32.066V37.6667C137.294 37.2242 136.478 36.8093 135.566 36.4221C134.653 36.0072 133.671 35.7998 132.62 35.7998C131.956 35.7998 131.362 35.9381 130.836 36.2147C130.338 36.4636 130.089 36.8646 130.089 37.4178C130.089 37.805 130.242 38.0954 130.546 38.289C130.85 38.4826 131.445 38.69 132.33 38.9113L133.616 39.2432C137.294 40.1836 139.133 42.1612 139.133 45.1759C139.133 46.5587 138.719 47.7893 137.889 48.8683C137.087 49.9193 136.022 50.7487 134.695 51.3573C133.394 51.9383 131.984 52.2286 130.463 52.2286C128.886 52.2286 127.42 52.0074 126.065 51.5647C124.71 51.0947 123.548 50.5275 122.58 49.864V44.3047C123.576 44.9129 124.696 45.4247 125.941 45.8395C127.213 46.2545 128.347 46.4619 129.343 46.4619C130.145 46.4619 130.726 46.3651 131.085 46.1716C131.472 45.9781 131.666 45.6321 131.666 45.1344C131.666 44.747 131.445 44.4567 131.002 44.2632C130.559 44.042 129.924 43.7928 129.094 43.5163L126.978 42.8524C125.429 42.3824 124.295 41.6494 123.576 40.6537C122.857 39.6304 122.497 38.3858 122.497 36.9199C122.497 35.4541 122.884 34.1956 123.659 33.1446C124.433 32.0936 125.484 31.2777 126.812 30.6969C128.167 30.1161 129.674 29.8257 131.334 29.8257Z" fill="#050038"/>
<path d="M153.853 29.8257C156.011 29.8257 157.767 30.5586 159.122 32.0245C160.505 33.4903 161.196 35.6615 161.196 38.5379V51.6062H154.061L154.019 39.6581C154.019 38.6071 153.729 37.8741 153.148 37.4592C152.567 37.0167 151.917 36.7955 151.198 36.7955C150.424 36.7955 149.774 37.0029 149.248 37.4178C148.723 37.805 148.266 38.2752 147.879 38.8283V51.6062H140.743V23.8101H147.879V33.1861C148.543 32.2734 149.345 31.4852 150.285 30.8214C151.253 30.1576 152.443 29.8257 153.853 29.8257Z" fill="#050038"/>
<path d="M160.837 23.9719V24.8546H159.775V27.5402H158.766V24.8546H157.703V23.9719H160.837Z" fill="#050038"/>
<path d="M164.978 23.9185V27.5563H163.97V25.7909L163.231 26.6201H162.929L162.19 25.7909V27.5563H161.181V23.9185H161.537L163.08 25.4699L164.622 23.9185H164.978Z" fill="#050038"/>
</g>
</svg>
