<svg width="94" height="73" viewBox="0 0 94 73" fill="none" xmlns="http://www.w3.org/2000/svg">
<g opacity="0.4">
<path d="M82.9111 47.8318C82.4148 47.4064 82.13 46.9606 82.1037 46.4923L82.9111 47.8318ZM82.9111 47.8318L82.9136 47.8339C83.4532 48.2755 84.2135 48.4861 85.1743 48.4861H87.2771H87.4176V48.3456V48.0699V47.9294H87.2771H86.2211L85.8545 47.8627L85.8479 47.8614L85.8408 47.861C85.6222 47.8427 85.3791 47.6946 85.1147 47.3656C84.8862 47.0303 84.7631 46.5469 84.7631 45.898V35.108C84.7631 33.9574 84.4691 33.0046 83.8703 32.2618L83.8686 32.2596C83.4766 31.7941 82.8619 31.45 82.0436 31.2159C81.2433 30.9573 80.2049 30.8306 78.9346 30.8306C77.6351 30.8306 76.4436 31.2803 75.3639 32.1722C74.5006 32.8668 73.8513 33.6111 73.4217 34.4061V31.1091V30.9685H73.2808H70.8678H70.7273V31.1091V48.3456V48.4861H70.8678H73.2808H73.4217V48.3456V36.1077C73.4217 35.2468 73.9731 34.2473 75.1374 33.1055L75.1387 33.1045C76.2881 31.9552 77.5746 31.3876 79.0034 31.3876C79.7003 31.3876 80.2745 31.4998 80.7324 31.7172C81.6016 32.1854 82.0691 33.274 82.0691 35.0735V45.898V45.9022V45.9063L82.1037 46.4919L82.9111 47.8318ZM68.5541 25.7935L68.6838 25.8433L68.7351 25.7145L68.8731 25.3698L68.9286 25.2313L68.7872 25.1842C66.4297 24.3984 64.1051 24.0049 61.8134 24.0049C59.5418 24.0049 57.8124 24.5377 56.6501 25.6282C55.4924 26.6917 54.916 28.0866 54.916 29.7991C54.916 31.9598 55.8123 33.6358 57.5984 34.8113C58.3866 35.3443 59.2549 35.8304 60.2028 36.2698L60.2058 36.2709C61.1483 36.6848 62.0795 37.0872 62.9995 37.4781L63.0008 37.4786C63.9374 37.8672 64.7936 38.2895 65.5685 38.7454C67.2779 39.7575 68.1195 41.1505 68.1195 42.9333C68.1195 44.5664 67.4743 45.7962 66.1836 46.642C64.9008 47.4748 63.3427 47.8948 61.5032 47.8948C60.2537 47.8948 59.0268 47.7134 57.8224 47.3497C56.6392 46.9627 55.6788 46.4756 54.9369 45.8909L54.8139 45.7942L54.7305 45.9272L54.5582 46.2029L54.4877 46.3159L54.5966 46.3926C56.6234 47.8135 59.066 48.5208 61.9169 48.5208C63.4437 48.5208 64.7799 48.3473 65.9225 47.9974L65.9242 47.997C67.1015 47.6204 68.1012 46.9135 68.9215 45.8822C69.7476 44.8437 70.1588 43.5939 70.1588 42.1405C70.1588 40.6787 69.9153 39.4707 69.419 38.525C68.9269 37.5646 68.2801 36.8103 67.4768 36.267C66.6878 35.7333 65.8187 35.2582 64.8691 34.8414C63.9241 34.4264 62.9787 34.0575 62.0332 33.7346C61.1191 33.3917 60.2746 33.0264 59.4989 32.6387C57.7894 31.7386 56.9554 30.4831 56.9554 28.8683C56.9554 27.5302 57.4546 26.4929 58.4509 25.74C59.4522 24.9833 60.8547 24.5963 62.6755 24.5963C64.5163 24.5963 66.476 24.9941 68.5541 25.7935ZM88.1541 33.2504L88.1537 33.2512C86.5581 34.8702 85.769 37.1391 85.769 40.0377C85.769 42.9337 86.5339 45.1044 88.0903 46.5194C89.6375 47.9256 91.638 48.6242 94.0798 48.6242C96.5491 48.6242 98.5859 47.8189 100.178 46.2041C101.797 44.5852 102.598 42.316 102.598 39.4172C102.598 36.5211 101.833 34.3504 100.276 32.9355C98.7285 31.5288 96.7163 30.8306 94.252 30.8306C91.8049 30.8306 89.7684 31.6361 88.1541 33.2504ZM90.09 33.6752L90.0908 33.6744C91.2168 32.1431 92.6243 31.3876 94.3209 31.3876C96.0261 31.3876 97.3869 32.0355 98.4166 33.3338C99.445 34.6305 99.9717 36.6494 99.9717 39.4172C99.9717 42.1569 99.4008 44.2841 98.2761 45.8142C97.1505 47.3226 95.7425 48.0674 94.0452 48.0674C92.3403 48.0674 90.9791 47.4194 89.9494 46.1211C88.921 44.8241 88.3943 42.8165 88.3943 40.0721C88.3943 37.3085 88.9656 35.182 90.09 33.6752ZM126.085 31.2165L125.983 31.3192L126.089 31.4185C126.42 31.7288 126.596 32.192 126.596 32.8327C126.596 33.4796 126.462 34.0291 126.2 34.4866L126.198 34.4919L126.195 34.4975L121.339 45.0143L116.182 31.0604L116.148 30.9685H116.05H113.637H113.435L113.505 31.1574L114.76 34.5848L109.962 45.0139L104.806 31.0604L104.771 30.9685H104.673H102.26H102.058L102.129 31.1581L108.541 48.3948L108.575 48.4861H108.672H109.017H109.108L109.145 48.404L115.071 35.3728L119.917 48.3948L119.951 48.4861H120.049H120.393H120.484L120.521 48.404L126.796 34.6147L126.797 34.6118C127.079 33.953 127.222 33.3022 127.222 32.6604C127.222 32.4886 127.198 32.3073 127.151 32.1172C127.122 31.9056 127.018 31.6813 126.854 31.4462C126.784 31.3297 126.718 31.2326 126.655 31.1569C126.593 31.0826 126.526 31.0192 126.454 30.9833L126.364 30.938L126.292 31.0096L126.085 31.2165Z" fill="#050038" stroke="#050038" stroke-width="0.281209"/>
<path fill-rule="evenodd" clip-rule="evenodd" d="M27.7706 42.3489L27.7556 54.1856L30.2578 54.189L30.2729 42.2969L34.8375 53.2782L37.148 52.3177L32.6148 41.4119L40.9551 49.7738L42.7267 48.0064L34.3506 39.6089L45.3057 44.1554L46.2645 41.8442L35.3083 37.2972H47.1707V34.795H35.3368L46.2749 30.2776L45.3194 27.9648L34.4283 32.4629L42.803 24.1737L41.0431 22.3953L32.5642 30.7873L37.1334 19.7673L34.8218 18.8089L30.2888 29.742L30.3038 17.9065L27.8016 17.9033L27.7865 29.7964L23.2214 18.8143L20.9109 19.7747L25.4437 30.6794L17.1039 22.3184L15.3323 24.0855L23.7088 32.4832L12.7535 27.9366L11.7944 30.2477L22.7512 34.795H10.8882V37.2972H22.723L11.7846 41.8148L12.7397 44.1275L23.6305 39.6297L15.2559 47.9188L17.0161 49.697L25.4945 41.3054L20.9257 52.3248L23.2371 53.2832L27.7706 42.3489Z" fill="#050038"/>
</g>
</svg>
