<svg width="56" height="57" viewBox="0 0 56 57" fill="none" xmlns="http://www.w3.org/2000/svg">
<g clip-path="url(#clip0_2316_193)">
<path d="M39.2 0.171875H16.8C7.52162 0.171875 0 7.69349 0 16.9719V39.3719C0 48.6503 7.52162 56.1719 16.8 56.1719H39.2C48.4784 56.1719 56 48.6503 56 39.3719V16.9719C56 7.69349 48.4784 0.171875 39.2 0.171875Z" fill="#9D0AFF"/>
<path fill-rule="evenodd" clip-rule="evenodd" d="M14.7778 22.8829C14.7778 19.962 17.1456 17.594 20.0666 17.594H35.9333C38.8542 17.594 41.2222 19.962 41.2222 22.8829V33.4607C41.2222 36.3816 38.8542 38.7496 35.9333 38.7496H20.0666C17.1456 38.7496 14.7778 36.3816 14.7778 33.4607V22.8829ZM20.0666 20.2385C18.6061 20.2385 17.4222 21.4224 17.4222 22.8829V33.4607C17.4222 34.9211 18.6061 36.1052 20.0666 36.1052H35.9333C37.3937 36.1052 38.5778 34.9211 38.5778 33.4607V22.8829C38.5778 21.4224 37.3937 20.2385 35.9333 20.2385H20.0666Z" fill="#FFFAFF"/>
<path fill-rule="evenodd" clip-rule="evenodd" d="M20.3565 23.3793C20.8127 22.8091 21.6446 22.7166 22.2149 23.1729L28.0001 27.8009L33.7852 23.1729C34.3554 22.7166 35.1875 22.8091 35.6436 23.3793C36.0998 23.9496 36.0073 24.7816 35.4372 25.2378L28.0001 31.1875L20.5629 25.2378C19.9927 24.7816 19.9002 23.9496 20.3565 23.3793Z" fill="#FFFAFF"/>
</g>
<defs>
<clipPath id="clip0_2316_193">
<rect width="56" height="56" fill="white" transform="translate(0 0.171875)"/>
</clipPath>
</defs>
</svg>
