<svg width="120" height="35" viewBox="0 0 120 35" fill="none" xmlns="http://www.w3.org/2000/svg">
<g clip-path="url(#clip0_2316_589)">
<path d="M50.6015 20.8202C53.9565 20.8202 56.2006 18.6205 56.2006 15.3321C56.2006 12.0438 53.9565 9.84412 50.6015 9.84412H43.9359V26.286H47.5353V20.8202H50.6015ZM49.8016 13.0436C51.5347 13.0436 52.4012 13.7991 52.4012 15.3321C52.4012 16.8652 51.5347 17.6207 49.8016 17.6207H47.5353V13.0436H49.8016ZM62.6419 26.5748C65.6859 26.5748 67.8856 24.9973 68.2855 22.531H65.1526C64.9082 23.3309 63.9973 23.7975 62.7086 23.7975C61.1977 23.7975 60.3756 23.1087 60.1756 21.6423L68.2411 21.5978V20.7313C68.2411 17.1096 66.0636 14.8211 62.5753 14.8211C59.2202 14.8211 56.8873 17.243 56.8873 20.7091C56.8873 24.1308 59.2869 26.5748 62.6419 26.5748ZM62.5975 17.5985C63.9751 17.5985 64.8416 18.3539 64.8416 19.5315H60.2201C60.4867 18.1984 61.2421 17.5985 62.5975 17.5985ZM70.2673 31.6185H73.689V25.1751C74.3333 26.0194 75.7553 26.5971 77.2884 26.5971C80.599 26.5971 82.5098 24.0641 82.5098 20.5536C82.5098 16.9763 80.3546 14.8211 77.2662 14.8211C75.6887 14.8211 74.2889 15.5099 73.6668 16.532L73.489 15.1766H70.2673V31.6185ZM73.7112 20.7313C73.7112 19.0649 74.8221 17.954 76.4219 17.954C78.0438 17.954 79.0659 19.0871 79.0659 20.7313C79.0659 22.3755 78.0438 23.5086 76.4219 23.5086C74.8221 23.5086 73.7112 22.3977 73.7112 20.7313ZM84.4795 31.6185H87.9012V25.1751C88.5455 26.0194 89.9675 26.5971 91.5006 26.5971C94.8112 26.5971 96.722 24.0641 96.722 20.5536C96.722 16.9763 94.5668 14.8211 91.4784 14.8211C89.9009 14.8211 88.5011 15.5099 87.879 16.532L87.7012 15.1766H84.4795V31.6185ZM87.9234 20.7313C87.9234 19.0649 89.0344 17.954 90.6341 17.954C92.2561 17.954 93.2781 19.0871 93.2781 20.7313C93.2781 22.3755 92.2561 23.5086 90.6341 23.5086C89.0344 23.5086 87.9234 22.3977 87.9234 20.7313ZM103.846 26.5748C106.89 26.5748 109.09 24.9973 109.49 22.531H106.357C106.113 23.3309 105.202 23.7975 103.913 23.7975C102.402 23.7975 101.58 23.1087 101.38 21.6423L109.446 21.5978V20.7313C109.446 17.1096 107.268 14.8211 103.78 14.8211C100.425 14.8211 98.0918 17.243 98.0918 20.7091C98.0918 24.1308 100.491 26.5748 103.846 26.5748ZM103.802 17.5985C105.18 17.5985 106.046 18.3539 106.046 19.5315H101.425C101.691 18.1984 102.447 17.5985 103.802 17.5985ZM119.115 15.1766C118.649 15.0655 118.204 15.0211 117.804 15.0211C116.316 15.0211 115.338 15.7543 114.871 16.843L114.694 15.1988H111.472V26.286H114.894V21.4645C114.894 19.2649 116.071 18.3983 118.026 18.3983H119.115V15.1766Z" fill="#151531"/>
<path d="M24.45 0.734375H8.8969C3.98847 0.734375 0.00939941 4.71344 0.00939941 9.62187V25.175C0.00939941 30.0834 3.98847 34.0625 8.8969 34.0625H24.45C29.3585 34.0625 33.3375 30.0834 33.3375 25.175V9.62187C33.3375 4.71344 29.3585 0.734375 24.45 0.734375Z" fill="#9D0AFF"/>
<path d="M22.4503 10.7328H10.8966C10.4057 10.7328 10.0078 11.1307 10.0078 11.6215V14.2878C10.0078 14.7786 10.4057 15.1765 10.8966 15.1765H22.4503C22.9412 15.1765 23.3391 14.7786 23.3391 14.2878V11.6215C23.3391 11.1307 22.9412 10.7328 22.4503 10.7328Z" fill="#FFFAFF"/>
<path d="M22.4503 19.6204H10.8966C10.4057 19.6204 10.0078 20.0183 10.0078 20.5091V23.1754C10.0078 23.6662 10.4057 24.0641 10.8966 24.0641H22.4503C22.9412 24.0641 23.3391 23.6662 23.3391 23.1754V20.5091C23.3391 20.0183 22.9412 19.6204 22.4503 19.6204Z" fill="#FFFAFF"/>
</g>
<defs>
<clipPath id="clip0_2316_589">
<rect width="119.981" height="33.3281" fill="white" transform="translate(0.00939941 0.734375)"/>
</clipPath>
</defs>
</svg>
