<svg width="57" height="57" viewBox="0 0 57 57" fill="none" xmlns="http://www.w3.org/2000/svg">
<g clip-path="url(#clip0_2316_231)">
<path d="M39.8563 0.171875H17.4562C8.17787 0.171875 0.65625 7.69349 0.65625 16.9719V39.3719C0.65625 48.6503 8.17787 56.1719 17.4562 56.1719H39.8563C49.1346 56.1719 56.6562 48.6503 56.6562 39.3719V16.9719C56.6562 7.69349 49.1346 0.171875 39.8563 0.171875Z" fill="#9D0AFF"/>
<path fill-rule="evenodd" clip-rule="evenodd" d="M29.1228 17.7496C26.8677 17.7496 25.0395 19.5777 25.0395 21.8329C25.0395 24.088 26.8677 25.9163 29.1228 25.9163C31.378 25.9163 33.2061 24.088 33.2061 21.8329C33.2061 19.5777 31.378 17.7496 29.1228 17.7496ZM22.3173 21.8329C22.3173 18.0743 25.3642 15.0273 29.1228 15.0273C32.8814 15.0273 35.9284 18.0743 35.9284 21.8329C35.9284 25.5916 32.8814 28.6385 29.1228 28.6385C25.3642 28.6385 22.3173 25.5916 22.3173 21.8329Z" fill="#FFFAFF"/>
<path fill-rule="evenodd" clip-rule="evenodd" d="M29.1229 32.7219C24.4374 32.7219 21.9743 34.3822 20.7455 36.3937C20.3178 37.0937 20.4255 37.7542 20.9475 38.3608C21.517 39.0226 22.5468 39.5275 23.6785 39.5275H34.5674C35.6991 39.5275 36.7288 39.0226 37.2984 38.3608C37.8205 37.7542 37.9281 37.0937 37.5004 36.3937C36.2716 34.3822 33.8085 32.7219 29.1229 32.7219ZM18.4224 34.9746C20.259 31.9682 23.7286 29.9998 29.1229 29.9998C34.5173 29.9998 37.987 31.9682 39.8235 34.9746C40.9634 36.8406 40.527 38.7824 39.3617 40.1365C38.2438 41.4355 36.4427 42.2498 34.5674 42.2498H23.6785C21.8032 42.2498 20.0021 41.4355 18.8842 40.1365C17.7189 38.7824 17.2826 36.8406 18.4224 34.9746Z" fill="#FFFAFF"/>
</g>
<defs>
<clipPath id="clip0_2316_231">
<rect width="56" height="56" fill="white" transform="translate(0.65625 0.171875)"/>
</clipPath>
</defs>
</svg>
