<svg width="57" height="57" viewBox="0 0 57 57" fill="none" xmlns="http://www.w3.org/2000/svg">
<g clip-path="url(#clip0_2316_264)">
<path d="M39.5281 0.546875H17.1281C7.84974 0.546875 0.328125 8.06849 0.328125 17.3469V39.7469C0.328125 49.0253 7.84974 56.5469 17.1281 56.5469H39.5281C48.8065 56.5469 56.3281 49.0253 56.3281 39.7469V17.3469C56.3281 8.06849 48.8065 0.546875 39.5281 0.546875Z" fill="#9D0AFF"/>
<path fill-rule="evenodd" clip-rule="evenodd" d="M15.1059 20.6135C15.1059 17.6926 17.4737 15.3247 20.3947 15.3247H21.7169C24.6379 15.3247 27.0059 17.6926 27.0059 20.6135V21.9358C27.0059 24.8567 24.6379 27.2247 21.7169 27.2247H20.3947C17.4737 27.2247 15.1059 24.8567 15.1059 21.9358V20.6135ZM20.3947 17.9691C18.9342 17.9691 17.7503 19.1531 17.7503 20.6135V21.9358C17.7503 23.3963 18.9342 24.5802 20.3947 24.5802H21.7169C23.1774 24.5802 24.3614 23.3963 24.3614 21.9358V20.6135C24.3614 19.1531 23.1774 17.9691 21.7169 17.9691H20.3947ZM29.6503 20.6135C29.6503 17.6926 32.0181 15.3247 34.9392 15.3247H36.2614C39.1823 15.3247 41.5503 17.6926 41.5503 20.6135V21.9358C41.5503 24.8567 39.1823 27.2247 36.2614 27.2247H34.9392C32.0181 27.2247 29.6503 24.8567 29.6503 21.9358V20.6135ZM34.9392 17.9691C33.4786 17.9691 32.2947 19.1531 32.2947 20.6135V21.9358C32.2947 23.3963 33.4786 24.5802 34.9392 24.5802H36.2614C37.7218 24.5802 38.9059 23.3963 38.9059 21.9358V20.6135C38.9059 19.1531 37.7218 17.9691 36.2614 17.9691H34.9392ZM15.1059 35.158C15.1059 32.2371 17.4737 29.8691 20.3947 29.8691H21.7169C24.6379 29.8691 27.0059 32.2371 27.0059 35.158V36.4802C27.0059 39.4013 24.6379 41.7691 21.7169 41.7691H20.3947C17.4737 41.7691 15.1059 39.4013 15.1059 36.4802V35.158ZM20.3947 32.5135C18.9342 32.5135 17.7503 33.6976 17.7503 35.158V36.4802C17.7503 37.9408 18.9342 39.1247 20.3947 39.1247H21.7169C23.1774 39.1247 24.3614 37.9407 24.3614 36.4802V35.158C24.3614 33.6976 23.1774 32.5135 21.7169 32.5135H20.3947ZM29.6503 35.158C29.6503 32.2371 32.0181 29.8691 34.9392 29.8691H36.2614C39.1823 29.8691 41.5503 32.2371 41.5503 35.158V36.4802C41.5503 39.4013 39.1823 41.7691 36.2614 41.7691H34.9392C32.0181 41.7691 29.6503 39.4013 29.6503 36.4802V35.158ZM34.9392 32.5135C33.4786 32.5135 32.2947 33.6976 32.2947 35.158V36.4802C32.2947 37.9407 33.4786 39.1247 34.9392 39.1247H36.2614C37.7218 39.1247 38.9059 37.9407 38.9059 36.4802V35.158C38.9059 33.6976 37.7218 32.5135 36.2614 32.5135H34.9392Z" fill="#FFFAFF"/>
</g>
<defs>
<clipPath id="clip0_2316_264">
<rect width="56" height="56" fill="white" transform="translate(0.328125 0.546875)"/>
</clipPath>
</defs>
</svg>
