<svg width="140" height="40" viewBox="0 0 140 40" fill="none" xmlns="http://www.w3.org/2000/svg">
<g clip-path="url(#clip0_2316_546)">
<path d="M58.549 23.9505C62.4305 23.9505 65.0266 21.4058 65.0266 17.6015C65.0266 13.7972 62.4305 11.2524 58.549 11.2524H50.8377V30.2739H55.0019V23.9505H58.549ZM57.6237 14.9539C59.6287 14.9539 60.6311 15.8279 60.6311 17.6015C60.6311 19.3752 59.6287 20.2491 57.6237 20.2491H55.0019V14.9539H57.6237ZM72.4786 30.6081C76.0001 30.6081 78.5448 28.783 79.0075 25.9298H75.3832C75.1005 26.8551 74.0465 27.395 72.5557 27.395C70.8077 27.395 69.8567 26.5981 69.6253 24.9016L78.9562 24.8502V23.8477C78.9562 19.6579 76.4371 17.0103 72.4014 17.0103C68.5201 17.0103 65.821 19.812 65.821 23.822C65.821 27.7805 68.5971 30.6081 72.4786 30.6081ZM72.4272 20.2234C74.0208 20.2234 75.0233 21.0974 75.0233 22.4596H69.6768C69.9852 20.9174 70.8592 20.2234 72.4272 20.2234ZM81.3004 36.443H85.2588V28.9887C86.0042 29.9654 87.6493 30.6338 89.423 30.6338C93.253 30.6338 95.4636 27.7035 95.4636 23.6421C95.4636 19.5037 92.9702 17.0103 89.3973 17.0103C87.5723 17.0103 85.9529 17.8071 85.2332 18.9895L85.0275 17.4216H81.3004V36.443ZM85.2845 23.8477C85.2845 21.9199 86.5697 20.6347 88.4205 20.6347C90.2969 20.6347 91.4794 21.9456 91.4794 23.8477C91.4794 25.7499 90.2969 27.0608 88.4205 27.0608C86.5697 27.0608 85.2845 25.7756 85.2845 23.8477ZM97.7423 36.443H101.701V28.9887C102.446 29.9654 104.091 30.6338 105.865 30.6338C109.695 30.6338 111.905 27.7035 111.905 23.6421C111.905 19.5037 109.412 17.0103 105.839 17.0103C104.014 17.0103 102.395 17.8071 101.675 18.9895L101.469 17.4216H97.7423V36.443ZM101.726 23.8477C101.726 21.9199 103.012 20.6347 104.862 20.6347C106.739 20.6347 107.921 21.9456 107.921 23.8477C107.921 25.7499 106.739 27.0608 104.862 27.0608C103.012 27.0608 101.726 25.7756 101.726 23.8477ZM120.148 30.6081C123.669 30.6081 126.214 28.783 126.676 25.9298H123.052C122.769 26.8551 121.715 27.395 120.224 27.395C118.477 27.395 117.526 26.5981 117.294 24.9016L126.626 24.8502V23.8477C126.626 19.6579 124.106 17.0103 120.07 17.0103C116.19 17.0103 113.49 19.812 113.49 23.822C113.49 27.7805 116.266 30.6081 120.148 30.6081ZM120.096 20.2234C121.69 20.2234 122.693 21.0974 122.693 22.4596H117.346C117.654 20.9174 118.529 20.2234 120.096 20.2234ZM137.812 17.4216C137.272 17.2931 136.758 17.2416 136.296 17.2416C134.573 17.2416 133.442 18.0899 132.902 19.3494L132.697 17.4473H128.969V30.2739H132.928V24.696C132.928 22.1513 134.29 21.1487 136.552 21.1487H137.812V17.4216Z" fill="#FFFAFF"/>
<path d="M28.2941 0.713867H10.3009C4.62239 0.713867 0.019043 5.31721 0.019043 10.9957V28.989C0.019043 34.6675 4.62239 39.2708 10.3009 39.2708H28.2941C33.9726 39.2708 38.576 34.6675 38.576 28.989V10.9957C38.576 5.31721 33.9726 0.713867 28.2941 0.713867Z" fill="#9D0AFF"/>
<path d="M25.9807 12.2808H12.6143C12.0465 12.2808 11.5861 12.7411 11.5861 13.3089V16.3935C11.5861 16.9614 12.0465 17.4217 12.6143 17.4217H25.9807C26.5485 17.4217 27.0089 16.9614 27.0089 16.3935V13.3089C27.0089 12.7411 26.5485 12.2808 25.9807 12.2808Z" fill="#FFFAFF"/>
<path d="M25.9807 22.5625H12.6143C12.0465 22.5625 11.5861 23.0228 11.5861 23.5907V26.6752C11.5861 27.2431 12.0465 27.7034 12.6143 27.7034H25.9807C26.5485 27.7034 27.0089 27.2431 27.0089 26.6752V23.5907C27.0089 23.0228 26.5485 22.5625 25.9807 22.5625Z" fill="#FFFAFF"/>
</g>
<defs>
<clipPath id="clip0_2316_546">
<rect width="139.962" height="39.3281" fill="white" transform="translate(0.019043 0.328125)"/>
</clipPath>
</defs>
</svg>
