<svg width="57" height="57" viewBox="0 0 57 57" fill="none" xmlns="http://www.w3.org/2000/svg">
<g clip-path="url(#clip0_2316_212)">
<path d="M39.5281 0.171875H17.1281C7.84974 0.171875 0.328125 7.69349 0.328125 16.9719V39.3719C0.328125 48.6503 7.84974 56.1719 17.1281 56.1719H39.5281C48.8065 56.1719 56.3281 48.6503 56.3281 39.3719V16.9719C56.3281 7.69349 48.8065 0.171875 39.5281 0.171875Z" fill="#9D0AFF"/>
<path fill-rule="evenodd" clip-rule="evenodd" d="M15.1059 22.8829C15.1059 19.2317 18.0657 16.2719 21.7169 16.2719H34.9392C38.5904 16.2719 41.5503 19.2317 41.5503 22.8829V34.7829C41.5503 38.4342 38.5904 41.3941 34.9392 41.3941H21.7169C18.0657 41.3941 15.1059 38.4341 15.1059 34.7829V22.8829ZM21.7169 18.9163C19.5262 18.9163 17.7503 20.6922 17.7503 22.8829V34.7829C17.7503 36.9737 19.5262 38.7496 21.7169 38.7496H34.9392C37.1299 38.7496 38.9059 36.9737 38.9059 34.7829V22.8829C38.9059 20.6922 37.1299 18.9163 34.9392 18.9163H21.7169Z" fill="#FFFAFF"/>
<path fill-rule="evenodd" clip-rule="evenodd" d="M23.0393 14.9497C23.7695 14.9497 24.3615 15.5416 24.3615 16.2719V20.2385C24.3615 20.9688 23.7695 21.5608 23.0393 21.5608C22.3091 21.5608 21.717 20.9688 21.717 20.2385V16.2719C21.717 15.5416 22.3091 14.9497 23.0393 14.9497Z" fill="#FFFAFF"/>
<path fill-rule="evenodd" clip-rule="evenodd" d="M20.3948 25.5275C20.3948 24.7972 20.9868 24.2052 21.717 24.2052H34.9392C35.6694 24.2052 36.2615 24.7972 36.2615 25.5275C36.2615 26.2577 35.6694 26.8496 34.9392 26.8496H21.717C20.9868 26.8496 20.3948 26.2577 20.3948 25.5275Z" fill="#FFFAFF"/>
<path fill-rule="evenodd" clip-rule="evenodd" d="M32.2948 34.7829C32.2948 34.0527 32.8868 33.4607 33.6171 33.4607H34.9392C35.6695 33.4607 36.2615 34.0527 36.2615 34.7829C36.2615 35.5132 35.6695 36.1052 34.9392 36.1052H33.6171C32.8868 36.1052 32.2948 35.5132 32.2948 34.7829Z" fill="#FFFAFF"/>
<path fill-rule="evenodd" clip-rule="evenodd" d="M33.6171 14.9497C34.3473 14.9497 34.9392 15.5416 34.9392 16.2719V20.2385C34.9392 20.9688 34.3473 21.5608 33.6171 21.5608C32.8868 21.5608 32.2948 20.9688 32.2948 20.2385V16.2719C32.2948 15.5416 32.8868 14.9497 33.6171 14.9497Z" fill="#FFFAFF"/>
</g>
<defs>
<clipPath id="clip0_2316_212">
<rect width="56" height="56" fill="white" transform="translate(0.328125 0.171875)"/>
</clipPath>
</defs>
</svg>
