<svg width="56" height="57" viewBox="0 0 56 57" fill="none" xmlns="http://www.w3.org/2000/svg">
<g clip-path="url(#clip0_2316_492)">
<path d="M40.88 0.59375H15.12C6.76946 0.59375 0 7.36321 0 15.7138V41.4738C0 49.8243 6.76946 56.5938 15.12 56.5938H40.88C49.2305 56.5938 56 49.8243 56 41.4738V15.7138C56 7.36321 49.2305 0.59375 40.88 0.59375Z" fill="#9D0AFF"/>
<path fill-rule="evenodd" clip-rule="evenodd" d="M28.4656 18.1709C26.2105 18.1709 24.3823 19.9991 24.3823 22.2542C24.3823 24.5094 26.2105 26.3376 28.4656 26.3376C30.7209 26.3376 32.549 24.5094 32.549 22.2542C32.549 19.9991 30.7209 18.1709 28.4656 18.1709ZM21.6601 22.2542C21.6601 18.4957 24.7071 15.4487 28.4656 15.4487C32.2243 15.4487 35.2712 18.4957 35.2712 22.2542C35.2712 26.0128 32.2243 29.0598 28.4656 29.0598C24.7071 29.0598 21.6601 26.0128 21.6601 22.2542Z" fill="#FFFAFF"/>
<path fill-rule="evenodd" clip-rule="evenodd" d="M28.4658 33.1426C23.7802 33.1426 21.3171 34.8029 20.0883 36.8144C19.6607 37.5144 19.7683 38.1748 20.2904 38.7815C20.8599 39.4432 21.8897 39.9482 23.0213 39.9482H33.9102C35.0419 39.9482 36.0717 39.4432 36.6413 38.7815C37.1633 38.1748 37.2709 37.5144 36.8432 36.8144C35.6144 34.8029 33.1513 33.1426 28.4658 33.1426ZM17.7653 35.3953C19.6018 32.3888 23.0715 30.4204 28.4658 30.4204C33.8601 30.4204 37.3298 32.3888 39.1663 35.3953C40.3062 37.2613 39.8699 39.2031 38.7046 40.5572C37.5866 41.8562 35.7855 42.6704 33.9102 42.6704H23.0213C21.1461 42.6704 19.3449 41.8562 18.2271 40.5572C17.0617 39.2031 16.6254 37.2613 17.7653 35.3953Z" fill="#FFFAFF"/>
</g>
<defs>
<clipPath id="clip0_2316_492">
<rect width="56" height="56" fill="white" transform="translate(0 0.59375)"/>
</clipPath>
</defs>
</svg>
